<svg xmlns="http://www.w3.org/2000/svg" xmlns:xlink="http://www.w3.org/1999/xlink" width="1080" zoomAndPan="magnify" viewBox="0 0 810 1012.49997" height="1350" preserveAspectRatio="xMidYMid meet" version="1.0"><defs><clipPath id="fe381dc6cf"><path d="M 0.199219 0 L 809.800781 0 L 809.800781 1012 L 0.199219 1012 Z M 0.199219 0 " clip-rule="nonzero"/></clipPath><clipPath id="224983b1ac"><path d="M 31.339844 132.339844 L 768.972656 132.339844 L 768.972656 869.972656 L 31.339844 869.972656 Z M 31.339844 132.339844 " clip-rule="nonzero"/></clipPath></defs><g clip-path="url(#fe381dc6cf)"><rect x="-81" width="972" fill="#919191" y="-101.249997" height="1214.999964" fill-opacity="1"/></g><g clip-path="url(#224983b1ac)"><path fill="#ffffff" d="M 197.273438 132.339844 L 602.605469 132.339844 C 648.410156 132.339844 689.894531 150.917969 720.144531 181.167969 C 749.960938 210.984375 768.972656 252.902344 768.972656 298.273438 L 768.972656 703.605469 C 768.972656 749.410156 749.960938 790.894531 720.144531 821.144531 C 689.894531 850.960938 648.410156 869.972656 602.605469 869.972656 L 197.273438 869.972656 C 151.902344 869.972656 109.984375 850.960938 80.167969 821.144531 C 49.917969 790.894531 31.339844 749.410156 31.339844 703.605469 L 31.339844 298.273438 C 31.339844 252.902344 49.917969 210.984375 80.167969 181.167969 C 109.984375 150.917969 151.902344 132.339844 197.273438 132.339844 Z M 602.605469 198.019531 L 197.273438 198.019531 C 169.617188 198.019531 144.554688 209.257812 126.40625 227.40625 C 108.257812 245.554688 97.019531 270.617188 97.019531 298.273438 L 97.019531 703.605469 C 97.019531 731.261719 108.257812 756.324219 126.40625 774.476562 C 144.554688 793.054688 169.617188 804.292969 197.273438 804.292969 L 602.605469 804.292969 C 630.261719 804.292969 655.324219 793.054688 673.476562 774.476562 C 692.054688 756.324219 703.292969 731.261719 703.292969 703.605469 L 703.292969 298.273438 C 703.292969 270.617188 692.054688 245.554688 673.476562 227.40625 C 655.324219 209.257812 630.261719 198.019531 602.605469 198.019531 Z M 602.605469 198.019531 " fill-opacity="1" fill-rule="nonzero"/></g><path fill="#ffffff" d="M 606.925781 261.113281 C 616.003906 261.113281 624.644531 264.570312 630.261719 270.617188 C 636.3125 276.667969 640.199219 284.878906 640.199219 293.953125 C 640.199219 303.027344 636.3125 311.671875 630.261719 317.289062 C 624.644531 323.335938 616.003906 327.226562 606.925781 327.226562 C 597.851562 327.226562 589.644531 323.335938 583.59375 317.289062 C 577.542969 311.671875 574.085938 303.027344 574.085938 293.953125 C 574.085938 284.878906 577.542969 276.667969 583.59375 270.617188 C 589.644531 264.570312 597.851562 261.113281 606.925781 261.113281 Z M 606.925781 261.113281 " fill-opacity="1" fill-rule="nonzero"/><path fill="#ffffff" d="M 399.941406 322.039062 C 449.632812 322.039062 494.144531 342.351562 526.550781 374.328125 C 558.960938 406.738281 579.273438 451.679688 579.273438 500.941406 C 579.273438 550.632812 558.960938 595.144531 526.550781 627.550781 C 494.144531 659.960938 449.632812 680.273438 399.941406 680.273438 C 350.679688 680.273438 305.738281 659.960938 273.328125 627.550781 C 241.351562 595.144531 221.039062 550.632812 221.039062 500.941406 C 221.039062 451.679688 241.351562 406.738281 273.328125 374.328125 C 305.738281 342.351562 350.679688 322.039062 399.941406 322.039062 Z M 479.882812 421.429688 C 459.574219 401.121094 431.054688 388.15625 399.941406 388.15625 C 368.828125 388.15625 340.738281 401.121094 320.429688 421.429688 C 300.121094 441.738281 287.15625 469.828125 287.15625 500.941406 C 287.15625 532.054688 300.121094 560.574219 320.429688 580.882812 C 340.738281 601.191406 368.828125 613.726562 399.941406 613.726562 C 431.054688 613.726562 459.574219 601.191406 479.882812 580.882812 C 500.191406 560.574219 512.722656 532.054688 512.722656 500.941406 C 512.722656 469.828125 500.191406 441.738281 479.882812 421.429688 Z M 479.882812 421.429688 " fill-opacity="1" fill-rule="nonzero"/></svg>